<?xml version="1.0" encoding="utf-8"?>
<!-- Generator: Adobe Illustrator 19.0.1, SVG Export Plug-In . SVG Version: 6.00 Build 0)  -->
<svg version="1.1" id="under_x5F_construction" xmlns="http://www.w3.org/2000/svg" xmlns:xlink="http://www.w3.org/1999/xlink"
	 x="0px" y="0px" viewBox="0 0 128 128" style="enable-background:new 0 0 128 128;" xml:space="preserve">
<style type="text/css">
	.st0{display:none;}
	.st1{display:inline;fill-rule:evenodd;clip-rule:evenodd;fill:#fff;}
	.st2{display:inline;fill:#fff;}
	.st3{display:none;fill:#fff;}
	.st4{fill:#fff;}
</style>
<g id="row4" class="st0">
	<path id="roller" class="st1" d="M112,5.3c0-2.9-2.4-5.3-5.3-5.3h-96C7.7,0,5.3,2.4,5.3,5.3v21.3c0,2.9,2.4,5.3,5.3,5.3h96
		c2.9,0,5.3-2.4,5.3-5.3v-16h5.3v32h-64v15.9H48v58.8c0,5.9,4.8,10.6,10.7,10.6c5.9,0,10.6-4.8,10.6-10.6V58.6H64V48h58.7V5.3H112z
		 M101.3,10.7H16V5.3h85.3V10.7z M58.7,120.5c-2.9,0-5.3-2.4-5.3-5.3c0-2.9,2.4-5.3,5.3-5.3c2.9,0,5.3,2.4,5.3,5.3
		C64,118.1,61.6,120.5,58.7,120.5z"/>
	<path id="hammer" class="st1" d="M93.9,4.3H83.5c-1.6,0-2.9,1.1-3.2,2.6c-3-4.1-9-6.9-15.9-6.9c-6.7,0-12.6,2.7-15.7,6.7V4.8
		c0-1.7-1.4-3.1-3.2-3.1H34.2c-1.8,0-3.2,1.4-3.2,3.1v22.1c0,1.7,1.4,3.1,3.2,3.1h11.5c1.8,0,3.2-1.4,3.2-3.1V25
		c1.5,1.9,6,4.5,6.9,5v30.8h-2.6V128h21.8V60.8h-2.6V30.1h0.9c0,0,5.6-3,7.4-5.6c0.5,1.1,1.6,1.8,2.9,1.8h10.3
		c1.8,0,3.2-1.4,3.2-3.1V7.4C97.1,5.7,95.6,4.3,93.9,4.3z M59.5,32h8.9v28.2h-8.9V32z"/>
	<path id="trowel" class="st2" d="M93.9,60.9H68.1v19.3h5.6V128H54.3V80.2h5.6V60.9H34.1c-2.6,0-4.3-2.8-3-5.1L61,1.8
		c1.3-2.4,4.7-2.4,6,0l29.9,54C98.2,58.1,96.5,60.9,93.9,60.9z"/>
	<path id="Excavator" class="st2" d="M113.9,79.2H34.8c-7.8,0-14.1,6.3-14.1,14.1c0,7.8,6.3,14.1,14.1,14.1h79.1
		c7.8,0,14.1-6.3,14.1-14.1C128,85.5,121.7,79.2,113.9,79.2z M113.9,104.5H34.8c-6.2,0-11.2-5-11.2-11.2c0-6.2,5-11.2,11.2-11.2
		h79.1c6.2,0,11.2,5,11.2,11.2C125.1,99.5,120.1,104.5,113.9,104.5z M101.2,93.3c0,1.8,0.6,3.6,1.6,4.9H45.5c1-1.4,1.6-3.1,1.6-4.9
		c0-1.8-0.6-3.5-1.6-4.9h57.3C101.8,89.8,101.2,91.5,101.2,93.3z M9.2,45.4c0,1-0.8,1.8-1.9,1.8c-1,0-1.8-0.8-1.8-1.8
		c0-1,0.8-1.8,1.8-1.8C8.4,43.6,9.2,44.4,9.2,45.4z M104,49.4h-2.9V35.3h-2.2c0-4.9,0.4-11,2.8-12.1l-1.2-2.6
		c-3.8,1.7-4.6,8-4.5,14.7h-2v14.1h-6.4V23.4H63.7L51,49.8v8.6l-6.7,0v0L20.9,24.6L7.4,40.5H7.3c-2.8,0-5.1,2.3-5.1,5.1
		c0,1.4,0.6,2.7,1.5,3.7c-0.5,2-2.4,10-3.5,14.3c-1.3,5,3.7,7.5,3.7,7.5h23.6L11,49.2c0.9-0.9,1.5-2.2,1.5-3.6
		c0-0.7-0.2-1.4-0.4-2.1l4.7-6.1L28.9,56l-0.6,0.5l9.3,14.1h-0.8v5.7h75.7V58L104,49.4z M7.4,49.6c-2.2,0-4-1.7-4-4
		c0-2.2,1.8-3.9,4-3.9c2.2,0,4,1.7,4,3.9C11.3,47.8,9.6,49.6,7.4,49.6z M44.2,74.6L31,54.4l-0.8,0.6L17.9,36l2.3-3l24,37.6V74.6z
		 M77.7,49.8H55.6l10.3-23h11.8V49.8z M84.3,49.8h-3.2v-23h3.2V49.8z M44,95.3c-0.2,0.8-0.5,1.5-0.8,2.1l1.4,1.4l-3.1,3.1l-1.3-1.3
		c-0.7,0.4-1.4,0.7-2.2,0.9v1.8h-4.3v-1.8c-0.8-0.2-1.5-0.5-2.2-0.9l-1.3,1.3L27,98.8l1.4-1.4c-0.4-0.7-0.6-1.4-0.8-2.1h-2V91h2.1
		c0.2-0.7,0.5-1.4,0.9-2L27,87.5l3.1-3.1l1.6,1.6c0.6-0.3,1.2-0.6,1.9-0.8V83h4.3v2.2c0.7,0.2,1.3,0.4,1.9,0.8l1.5-1.5l3.1,3.1
		L43,89c0.4,0.6,0.7,1.3,0.9,2h2.1v4.3H44z M120.7,95.3c-0.2,0.8-0.5,1.6-0.9,2.3l1.2,1.2l-3.1,3.1l-1.2-1.2
		c-0.7,0.4-1.5,0.7-2.3,0.9v1.8h-4.3v-1.9c-0.7-0.2-1.4-0.5-2.1-1l-1.4,1.4l-3.1-3.1l1.5-1.5c-0.3-0.6-0.6-1.3-0.8-2h-2.2V91h2.3
		c0.2-0.6,0.4-1.3,0.8-1.8l-1.7-1.7l3.1-3.1l1.6,1.6c0.6-0.3,1.2-0.6,1.8-0.8V83h4.3v2.2c0.7,0.2,1.4,0.4,2,0.8l1.5-1.5l3.1,3.1
		l-1.4,1.4c0.4,0.6,0.8,1.4,1,2.1h1.8v4.3H120.7z"/>
</g>
<g id="row3" class="st0">
	<path id="screw_x5F_wrench" class="st1" d="M123.8,19.2c4.7,11.3,2.4,24.7-6.7,33.9C107,63.1,91.8,64.7,79.9,58l-8.6,9.4l6.1,6.1
		l3.6-3.6c1.9-1.9,4.9-1.9,6.8,0l36.2,36.5c1.9,1.9,1.9,4.9,0,6.8l-13.5,13.5c-1.9,1.9-4.9,1.9-6.8,0L67.6,90.1
		c-1.9-1.9-1.9-4.9,0-6.8l3.3-3.3l-5.8-5.8l-40.9,44.7c-3.7,3.7-9.8,3.7-13.5,0l-3.4-3.4c-3.7-3.7-3.7-9.8,0-13.5l46.6-39.1
		l-31-31.1l-9.8,0L1.8,13.7L11,4.5l18.6,11.4l0.1,9.6L61,57l9.1-7.6c-8.9-12.2-8-29.3,3-40.2C82.3,0,95.6-2.3,106.9,2.3l-22.3,22
		l16.9,16.9L123.8,19.2z M18.5,106.8c-1.9-1.9-4.9-1.9-6.8,0c-1.9,1.9-1.9,4.9,0,6.8c1.9,1.9,4.9,1.9,6.8,0
		C20.4,111.7,20.4,108.6,18.5,106.8z"/>
	<path id="map" class="st2" d="M13.8,109.5c-4.1,0-7.3-2.1-7.3-4.7c0-0.2,0-0.4,0-0.5c0.4-2.4,3.5-4.2,7.3-4.2s6.9,1.8,7.3,4.2
		c0,0.2,0,0.4,0,0.5C21.1,107.5,17.9,109.5,13.8,109.5z M25.7,17.8c-1.8-2.4-4.7-4-8-4H10c-5.5,0-10,4.5-10,10v78.9
		c0,0.2,0,1.2,0,1.9v0.1c0,0.2,0,0.4,0,0.6c0.4,5.1,6.3,9,13.7,9c6.6,0,11.9-3.1,13.4-7.3H128V17.8H25.7z M13.7,110.9
		c-5.6,0-10.4-2.9-10.4-6.3c0-0.2,0-0.4,0-0.5c0.5-3.2,5-5.7,10.3-5.7c5.3,0,9.8,2.5,10.3,5.7c0,0.2,0,0.3,0,0.5
		C24.1,108.1,19.3,110.9,13.7,110.9z M35.6,22.8v6H59v-6h8.3v29h-3.9V39.6H34v12.2h-6.3v-28c0-0.3,0-0.6,0-0.9H35.6z M60.1,42.9v8
		H37.3v-8H60.1z M45.2,101.9H27.6v-3.8h17.6V101.9z M45.2,94.8H27.6v-5h17.6V94.8z M45.2,86.5H27.6v-5h17.6V86.5z M45.2,78.2H27.6
		v-5.3h17.6V78.2z M123,95.6h-10.7V77.9H123V95.6z M123,76.3h-12.4v21H123v4.6H48.6V72.8H123V76.3z M123,69.5H27.6V55.1h43V22.8
		h19.2c1.3,17.7,15.5,31.8,33.2,33V69.5z M123,52.5c-15.9-1.2-28.6-13.9-29.8-29.7H123V52.5z M118,93.9c-2.2,0-3.8-3-3.8-7.1
		c0-4,1.7-7.1,3.8-7.1s3.8,3,3.8,7.1C121.9,90.8,120.2,93.9,118,93.9z M118,81.4c-0.9,0-2.2,2.1-2.2,5.4c0,3.3,1.3,5.4,2.2,5.4
		s2.2-2.1,2.2-5.4C120.2,83.5,118.9,81.4,118,81.4z M41.9,44.8c-1.5,0-2.7,1.2-2.7,2.7s1.2,2.7,2.7,2.7s2.7-1.2,2.7-2.7
		S43.4,44.8,41.9,44.8z M48.6,44.8c-1.5,0-2.7,1.2-2.7,2.7s1.2,2.7,2.7,2.7s2.7-1.2,2.7-2.7S50.1,44.8,48.6,44.8z M55.2,44.8
		c-1.5,0-2.7,1.2-2.7,2.7s1.2,2.7,2.7,2.7s2.7-1.2,2.7-2.7S56.7,44.8,55.2,44.8z"/>
	<path id="cone" class="st2" d="M128,105.5v19.6H0v-19.6h23.7l9.7-29.3h61.3l9.7,29.3H128z M77,7.8c-0.5-2.8-3-4.9-5.8-4.9H56.8
		c-2.9,0-5.3,2-5.8,4.9l-4.6,18h35.2L77,7.8z M86.1,43.2H41.9l-4,15.4h52.3L86.1,43.2z"/>
	<path id="helmet" class="st2" d="M128,85.2v13.5H0V85.2h5.5c2.5-19.7,14.7-36.3,31.6-45v37h11V29.3h31.6v47.9h11v-37
		c16.9,8.7,29.1,25.3,31.6,45H128z"/>
</g>
<g id="row2" class="st0">
	<path id="Shovel" class="st2" d="M69.6,79.2v-7.3h-2.1V21.7L83.7,0H44.3l16.3,21.7v50.2h-2.1v7.3l-21.3,0c0,0,0,12.1,0,15.3
		C37.1,115,64,128,64,128s26.9-13,26.9-33.6V79.3L69.6,79.2z M54.7,5.2h18.7L64,17.6L54.7,5.2z"/>
	<path id="mixer" class="st2" d="M79,84.2c-1-0.9-2.4-1.4-3.8-1.4c-1.5,0-2.8,0.5-3.8,1.4c-1.4,1.1-2.2,2.8-2.2,4.7
		c0,0.9,0.2,1.8,0.6,2.6c1,2,3.1,3.4,5.5,3.4s4.5-1.4,5.5-3.4c0.4-0.8,0.6-1.7,0.6-2.6C81.2,87,80.3,85.3,79,84.2z M78.8,90.6
		c-0.7,1.4-2,2.3-3.7,2.3c-1.6,0-3-0.9-3.7-2.3c-0.3-0.5-0.4-1.1-0.4-1.7c0-1.3,0.6-2.4,1.5-3.1c0.7-0.6,1.6-0.9,2.6-0.9
		c1,0,1.9,0.3,2.6,0.9c0.9,0.7,1.5,1.9,1.5,3.1C79.2,89.5,79.1,90.1,78.8,90.6z M77.6,88.9c0,0.4-0.1,0.7-0.2,1.1
		c-0.4,0.8-1.3,1.4-2.2,1.4c-1,0-1.8-0.6-2.2-1.4c-0.2-0.3-0.2-0.7-0.2-1.1c0-0.8,0.4-1.5,0.9-1.9c0.4-0.3,1-0.6,1.6-0.6
		c0.6,0,1.1,0.2,1.6,0.6C77.3,87.4,77.6,88.1,77.6,88.9z M20.2,81.1c-4.3,0-7.8,3.5-7.8,7.8c0,0.9,0.2,1.7,0.4,2.5
		c1,3.1,4,5.3,7.4,5.3s6.4-2.2,7.4-5.3c0.3-0.8,0.4-1.6,0.4-2.5C28,84.6,24.5,81.1,20.2,81.1z M24.6,90.3c-0.6,1.8-2.4,3.2-4.4,3.2
		s-3.8-1.3-4.4-3.2c-0.2-0.5-0.2-1-0.2-1.5c0-2.6,2.1-4.6,4.6-4.6c2.6,0,4.6,2.1,4.6,4.6C24.9,89.4,24.8,89.9,24.6,90.3z M98.6,84.2
		c-1-0.9-2.4-1.4-3.8-1.4c-1.5,0-2.8,0.5-3.8,1.4c-1.4,1.1-2.2,2.8-2.2,4.7c0,0.9,0.2,1.8,0.6,2.6c1,2,3.1,3.4,5.5,3.4
		c2.4,0,4.5-1.4,5.5-3.4c0.4-0.8,0.6-1.7,0.6-2.6C100.8,87,99.9,85.3,98.6,84.2z M98.4,90.6c-0.7,1.4-2,2.3-3.7,2.3
		c-1.6,0-3-0.9-3.7-2.3c-0.3-0.5-0.4-1.1-0.4-1.7c0-1.3,0.6-2.4,1.5-3.1c0.7-0.6,1.6-0.9,2.6-0.9c1,0,1.9,0.3,2.6,0.9
		c0.9,0.7,1.5,1.9,1.5,3.1C98.8,89.5,98.6,90.1,98.4,90.6z M97.2,88.9c0,0.4-0.1,0.7-0.2,1.1c-0.4,0.8-1.3,1.4-2.2,1.4
		c-1,0-1.8-0.6-2.2-1.4c-0.2-0.3-0.2-0.7-0.2-1.1c0-0.8,0.4-1.5,0.9-1.9c0.4-0.3,1-0.6,1.6-0.6c0.6,0,1.1,0.2,1.6,0.6
		C96.9,87.4,97.2,88.1,97.2,88.9z M23.2,88.9c0,0.3-0.1,0.6-0.2,0.9c-0.4,1.2-1.5,2-2.8,2c-1.3,0-2.4-0.8-2.8-2
		c-0.1-0.3-0.1-0.6-0.1-0.9c0-1.6,1.3-2.9,2.9-2.9C21.9,85.9,23.2,87.3,23.2,88.9z M127.3,67.2l-13.5-11.3l-5-18.3h-1.5v-0.3
		l4.2-5.9H95l-1.3,6.3H68.2L40.9,54.9l3.9,12.2l-1.9,1L42,65h-5.1v17.9h-3.7V48.5c0-0.7-0.6-1.3-1.3-1.3H7.4L0,61v29.9
		c0,0.7,0.6,1.3,1.3,1.3h8.9c-0.4-1.1-0.6-2.2-0.6-3.4c0-5.8,4.7-10.5,10.5-10.5c5.8,0,10.5,4.7,10.5,10.5c0,1.2-0.2,2.3-0.6,3.4h3
		c0.2,0,0.3,0,0.5-0.1v0.1h34.4c-0.5-1-0.8-2.2-0.8-3.4c0-2.4,1.1-4.6,2.9-6c1.3-1.1,3.1-1.8,4.9-1.8c1.9,0,3.6,0.7,4.9,1.8
		c1.7,1.4,2.9,3.6,2.9,6c0,1.2-0.3,2.3-0.8,3.4h5.4c-0.5-1-0.8-2.2-0.8-3.4c0-2.4,1.1-4.6,2.9-6c1.3-1.1,3.1-1.8,4.9-1.8
		s3.6,0.7,4.9,1.8c1.7,1.4,2.9,3.6,2.9,6c0,1.2-0.3,2.3-0.8,3.4h11.4v-9.4h-8.7v-8.2h-3.1l-2.1-8.7h3.4l19.9,5.7L128,76L127.3,67.2z
		 M12,65H3.4v-3.6l5.2-10.1H12V65z M29.2,65H15.4V51.2h13.8V65z M59.4,82.8H47.3l-3.2-10.7l2-1l2.6,8l10.6-0.3V82.8z M89.3,74.7
		h-5.6l5.6-3.2V74.7z M109.2,59.9l3.1,2.7h-7.7L109.2,59.9z M109.4,65.9l5.4-0.6l4,3.3L109.4,65.9z"/>
	<path id="bulldozer" class="st2" d="M29.3,75.6c-1,0-1.9,0.8-1.9,1.9c0,1,0.8,1.9,1.9,1.9c1,0,1.9-0.8,1.9-1.9
		C31.2,76.4,30.3,75.6,29.3,75.6z M43.7,58.5c-4-3.1-9-4.9-14.5-4.9c-10.4,0-19.3,6.8-22.5,16.2h45C50.3,65.3,47.4,61.4,43.7,58.5z
		 M6.9,85.3c3.3,9.2,12.1,15.8,22.4,15.8c9.1,0,17-5.1,21-12.6c0.5-1,1-2.1,1.4-3.2H6.9z M43.7,58.5c-4-3.1-9-4.9-14.5-4.9
		c-10.4,0-19.3,6.8-22.5,16.2h45C50.3,65.3,47.4,61.4,43.7,58.5z M109,84.3c-0.4-3.2-3.1-5.6-6.4-5.6c-3.6,0-6.5,2.9-6.5,6.5
		c0,0.3,0,0.6,0.1,0.9c0.4,3.1,3.1,5.6,6.4,5.6c3.6,0,6.5-2.9,6.5-6.5C109,84.9,109,84.6,109,84.3z M118.3,83.1
		c-1-7.7-7.7-13.7-15.7-13.7c-8.8,0-15.8,7.1-15.8,15.8c0,0.8,0.1,1.5,0.2,2.3c1.1,7.7,7.7,13.6,15.7,13.6c8.8,0,15.8-7.1,15.8-15.8
		C118.4,84.5,118.3,83.7,118.3,83.1z M102.6,93.6c-4.3,0-7.8-3.2-8.4-7.3c-0.1-0.4-0.1-0.8-0.1-1.2c0-4.7,3.8-8.5,8.5-8.5
		c4.3,0,7.8,3.2,8.4,7.3c0,0.4,0.1,0.7,0.1,1.1C111,89.9,107.2,93.6,102.6,93.6z M124.8,73V62.1l-16-9.7h-2.1V43h-0.9v-5.3h-1.9
		v-3.9c0,0,0.3-3.6,2.4-4.4l-0.9-2.4c-3.7,1.4-4,6.5-4.1,6.8v4h-1.9V43h-1.6v9.1h-5.8V32.6h2.6l-0.1-4.5H56.6v4.2h4.6l-6,22.2
		l-8.8,0.3c-4.8-3.6-10.7-5.7-17.1-5.7c-13.6,0-24.9,9.6-27.7,22.3H0v12h56.6c-0.5,2.5-1.4,4.9-2.6,7.2h29.6
		c-0.1-0.9-0.2-4.4-0.2-5.4C83.4,74.6,92,66,102.6,66c9.7,0,17.8,7.2,19,16.7l6.4-0.1V73H124.8z M29.3,80.8c-1.8,0-3.3-1.5-3.3-3.3
		c0-1.8,1.5-3.3,3.3-3.3c1.8,0,3.3,1.5,3.3,3.3C32.6,79.3,31.1,80.8,29.3,80.8z M4.2,71.4c2.7-11.3,12.9-19.7,25-19.7
		c12.1,0,22.3,8.4,25,19.7H4.2z M77.7,53.9H58.2l6.1-22.1h13.3V53.9z M88.8,53.9h-7.5V31.8h7.5V53.9z"/>
	<path id="wheelbarrow" class="st2" d="M127.2,34.6l-24.6,3.7l0.3,1.9l-11,2.2L78.2,67.6l-0.1,0V43h-77L33.6,74l-4.8,0.7
		c-1.5-5.9-6.8-10.2-13.1-10.2c-7.4,0-13.5,6.1-13.5,13.5c0,7.4,6,13.5,13.5,13.5c7.4,0,13.5-6,13.5-13.5c0-0.2,0-0.4,0-0.6
		l15.7-2.2l14,18.2L67.3,72L80,70.1l13.7-25.2l9.6-2l0.1,0.9l24.6-3.7L127.2,34.6z M15.8,83.9c-3.3,0-6-2.7-6-6c0-3.3,2.7-6,6-6
		c2.5,0,4.7,1.6,5.6,3.8l-3.5,0.5c-0.5-0.6-1.2-1-2.1-1c-1.5,0-2.7,1.2-2.7,2.7c0,1.5,1.2,2.7,2.7,2.7c1.1,0,2.1-0.7,2.5-1.7
		l3.4-0.5C21.5,81.5,18.9,83.9,15.8,83.9z M58.1,87.8L47.8,74.4l16.4-2.1L58.1,87.8z M78.1,41.4H0v-4.1h78.1V41.4z"/>
</g>
<g id="row1">
	<path id="truck" class="st3" d="M3.2,46.7l2.3,1.2v0L3.2,46.7z M34.5,81.8c-1,0-1.9,0.3-2.8,0.7c-1.9,1-3.2,3-3.2,5.2
		c0,3.3,2.7,5.9,5.9,5.9c3.1,0,5.7-2.4,5.9-5.5c0-0.2,0-0.3,0-0.5C40.4,84.5,37.8,81.8,34.5,81.8z M34.5,72c-2.7,0-5.2,0.7-7.4,1.8
		c-5,2.6-8.4,7.9-8.4,14c0,8.7,7.1,15.8,15.8,15.8c8.3,0,15.1-6.4,15.7-14.6c0-0.4,0.1-0.8,0.1-1.2C50.3,79,43.2,72,34.5,72z
		 M42.5,88.4c-0.3,4.1-3.8,7.4-8,7.4c-4.4,0-8-3.6-8-8c0-3.1,1.7-5.7,4.3-7.1c1.1-0.6,2.4-0.9,3.7-0.9c4.4,0,8,3.6,8,8
		C42.5,88,42.5,88.2,42.5,88.4z M126.4,77.5V63.9l-3.6-3.4l-7.6-26.9H88.7V70c1.9-0.7,4.1-1.1,6.3-1.1c10.4,0,18.9,8.4,18.9,18.9
		c0,2.5-0.5,4.8-1.4,7c0.1,0.2,0.1,0.3,0,0.4h14v-7.4l1.6-1.6v-8.7H126.4z M103.6,52.6h-12V37.2h12V52.6z M106.7,52.6V37.2h7.1
		l4.2,15.4H106.7z M76.4,91.3c-0.2-1.1-0.3-2.3-0.3-3.5c0-7.3,4.1-13.6,10.2-16.7c0.1-0.1,0.2-0.2,0.2-0.2V35.1L66.6,74.3L64.4,73
		l20-40.5v0l0.5-1h37.8v-7.1H77.3v2.4H0v12.8h3.2v7.1l2.3,1.2l2.8,1.5l8.7,4.6l2.7,1.4l8.7,4.6l2.7,1.5l8.7,4.5l2.7,1.5l0.2,0.1
		l19.3,10.1l0.5,1.9L6.3,50.1v11.1l19.6,10.3c2.6-1.4,5.5-2.1,8.6-2.1c10.2,0,18.4,8.2,18.4,18.4c0,0.5,0,1-0.1,1.4h9.6v3.5h14
		 M10.8,44.9L8,43.5l6.2-10.9h3.6L10.8,44.9z M22.2,50.9l-2.7-1.5L29,32.5h3.6L22.2,50.9z M33.7,56.9l-2.7-1.4l12.9-22.9h3.6
		L33.7,56.9z M42.4,61.5l16.3-28.9h3.6L45.2,62.9L42.4,61.5z M56.6,68.9l-2.8-1.4l19.7-34.9h3.6L56.6,68.9z M62.5,92.7h14
		c-0.1-0.2-0.1-0.4-0.1-1.5 M94.9,72c-2.7,0-5.2,0.7-7.4,1.8c-5,2.6-8.4,7.9-8.4,14c0,8.7,7.1,15.8,15.8,15.8
		c8.3,0,15.1-6.4,15.7-14.6c0-0.4,0.1-0.8,0.1-1.2C110.7,79,103.6,72,94.9,72z M102.9,88.4c-0.3,4.1-3.8,7.4-8,7.4c-4.4,0-8-3.6-8-8
		c0-3.1,1.7-5.7,4.3-7.1c1.1-0.6,2.4-0.9,3.7-0.9c4.4,0,8,3.6,8,8C102.9,88,102.9,88.2,102.9,88.4z M94.9,81.8c-1,0-1.9,0.3-2.8,0.7
		c-1.9,1-3.2,3-3.2,5.2c0,3.3,2.7,5.9,5.9,5.9c3.1,0,5.7-2.4,5.9-5.5c0-0.2,0-0.3,0-0.5C100.9,84.5,98.2,81.8,94.9,81.8z"/>
	<path id="pully_1_" class="st3" d="M65.5,106.9l0-8.1h6V92h9.8l13.9-34.9L95,56.8V5h-3.5v42.9l-3.4-8.5V0h-3.5v30.6l-3.3-8.4H46.7
		l-3,7.6V0h-3.5v38.7l-3.7,9.2V5H33v51.8l-0.1,0.4L46.7,92h7.2v6.8H59v2.6c-4.5,2.3-7.6,7.1-7.6,12.5c0,7.8,6.3,14.1,14.1,14.1
		c7.8,0,14.1-6.3,14.1-14.1h-7.1c0,3.9-3.2,7-7,7c-3.9,0-7-3.2-7-7S61.6,106.9,65.5,106.9z M49.1,88.5L36.6,57.1l12.5-31.4h29.8
		l12.5,31.4L78.9,88.5H49.1z M71.8,31.8L46.7,45.4l4-10.3l1.3-3.3h4.8H71.8z M80.1,42.4L44,61.9l-1.9-4.8l1.2-3l34.2-18.5L80.1,42.4
		z M85.3,55.6L49.1,75.1l-2.6-6.7v0l36.2-19.5L85.3,55.6z M83.9,62.3L76.6,81L76,82.5h-2.2H52L51,80.1L83.9,62.3z"/>
	<path id="wall" class="st4" d="M40,49.5H0V30.5h40V49.5z M84,30.5H44v18.9h40V30.5z M128,30.5H88v18.9h40V30.5z M40,78.5H0v18.9h40
		V78.5z M84,78.5H44v18.9h40V78.5z M128,78.5H88v18.9h40V78.5z M60,54.5H20v18.9h40V54.5z M104,54.5H64v18.9h40V54.5z M128,54.5h-20
		v18.9h20V54.5z M16,54.5H0v18.9h16V54.5z"/>
	<path id="sign" class="st3" d="M0,26.5v43.4h13.9v50.4h10.8V69.9h81.9v50.4h10.8V69.9H128V26.5H0z M2.2,36.7l8-8h12.5L2.2,49.2
		V36.7z M2.2,63.2l34.5-34.5h12.5l-39,39h-8V63.2z M22,67.7l39-39h12.5l-39,39H22z M48.5,67.7l39-39h12.5l-39,39H48.5z M125.8,53.6
		l-14.1,14.1H99.2l26.6-26.6V53.6z M125.8,29.3L87.4,67.7H74.9l39-39h11.9V29.3z M28.6,16.9c0,5.1-4.1,9.2-9.2,9.2s-9.2-4.1-9.2-9.2
		s4.1-9.2,9.2-9.2S28.6,11.8,28.6,16.9z M121.2,16.9c0,5.1-4.1,9.2-9.2,9.2c-5.1,0-9.2-4.1-9.2-9.2s4.1-9.2,9.2-9.2
		C117.1,7.7,121.2,11.8,121.2,16.9z"/>
</g>
</svg>
