<svg xmlns="http://www.w3.org/2000/svg" enable-background="new 0 0 66 66" viewBox="0 0 66 66" id="construction"><path fill="#7E5332" d="M64.50769,55.48676H1.49231C1.22019,55.48676,1,55.26656,1,54.99445V1.82522
					C1,1.5531,1.22019,1.33291,1.49231,1.33291h63.01538C64.77981,1.33291,65,1.5531,65,1.82522v53.16923
					C65,55.26656,64.77981,55.48676,64.50769,55.48676z M1.98462,54.50214h62.03077V2.31752H1.98462V54.50214z"></path><path fill="#7E5332" d="M64.50769,55.48676H1.49231C1.22019,55.48676,1,55.26656,1,54.99445V1.82522
					C1,1.5531,1.22019,1.33291,1.49231,1.33291h63.01538C64.77981,1.33291,65,1.5531,65,1.82522v53.16923
					C65,55.26656,64.77981,55.48676,64.50769,55.48676z M1.98462,54.50214h62.03077V2.31752H1.98462V54.50214z"></path><rect width=".985" height="53.135" x="52.43" y="1.859" fill="#7E5332"></rect><rect width=".985" height="53.135" x="39.39" y="1.859" fill="#7E5332"></rect><rect width=".985" height="53.135" x="26.351" y="1.859" fill="#7E5332"></rect><rect width=".985" height="53.135" x="13.312" y="1.859" fill="#7E5332"></rect><g><polygon fill="#A67650" points="47.019 3.906 44.777 2.598 10.804 36.571 12.972 38.44"></polygon><path fill="#F7AA8F" d="M28.31891,16.25755v-0.32841c0,0,1.5564-0.4935,1.28368-1.16881
			c-0.27272-0.67531-0.6258-1.82464-0.6258-1.82464s0.24269-0.48051-0.15989-0.63635
			c-0.40259-0.15584-0.8766-0.34415-0.94154-0.42207c-0.06493-0.07792-4.00265,2.06802-4.37653,3.40253
			c-0.16443,0.5869,0.82528,2.29405,0.82528,2.29405l3.38242,0.43317L28.31891,16.25755z"></path><path fill="#273240" d="M35.65731,62.61547h-0.89346l-5.75011-21.99953l-5.08973,21.99953h-0.89346
			c0,0-0.44541-25.62122,0.37136-28.14417c0.58853-1.81795,7.29462-2.24032,7.35164-2.09785
			c0.05752,0.14248,3.38381,0.19426,3.98816,1.02743C36.35499,35.62494,35.65731,62.61547,35.65731,62.61547z"></path><path fill="#9D683E" d="M37.40668 63.88697c-.13693.54692-1.03558.37759-1.03558.37759s-.05042.0575-.14789.1965c-.09774.13928-1.23678.35303-1.519.0575-.25555-.26732.05965-1.90308.05965-1.90308h.89346c0 0 .51598.28793.95472.28166C37.05104 62.89086 37.54334 63.34005 37.40668 63.88697zM21.28119 63.88697c.13693.54692 1.03558.37759 1.03558.37759s.05042.0575.14789.1965c.09774.13928 1.23678.35303 1.519.0575.25555-.26732-.05965-1.90308-.05965-1.90308h-.89346c0 0-.51598.28793-.95472.28166C21.63683 62.89086 21.14453 63.34005 21.28119 63.88697z"></path><path fill="#597ABC" d="M39.12302,22.51332c-0.86647,0.94525-5.08059-0.59075-5.08059-0.59075
			c0.11815,1.13233,1.84123,12.20925,1.34892,12.68185c-2.05787,1.95937-12.09111,1.94952-12.25847,1.37843
			c-0.54153-1.85102,0.78768-6.86274,0.25601-8.72368c-0.41352-1.41785-2.52061-4.81479-2.34339-5.43504
			c0.27572-0.96496,2.67819-3.02278,2.67819-3.02278l0.22644-1.10276l4.37169-1.43756l0.95505,0.98462
			c0,0,3.65295,0.01971,4.81479,0.35445c0.66953,0.19694,2.47139,1.31941,2.47139,1.31941l0.128-1.664
			c0-0.04922,0.03936-0.0985,0.08858-0.10829l1.67386-0.31508c0.05907-0.00986,0.10829,0.01965,0.128,0.07873
			C38.78828,17.58038,39.95012,21.60749,39.12302,22.51332z"></path><path fill="#F8B29A" d="M38.5027 16.82227l-1.69987.32494.34115-2.71755c0 0-.64002-1.02404-.17728-1.664.45295-.64002.54159-1.16184.70895-1.13233.16737.02957.11815 1.41785.11815 1.41785s.66953-.59074.71875-.45294c.2265.65974-.52182 1.27019-.63011 1.70343C37.70517 15.02041 38.5027 16.82227 38.5027 16.82227zM19.85313 29.05652c.50599.64989-1.08181 1.88612-1.5878 1.23623-.5124-.65813-.57496-1.46834-.13897-1.80779C18.57059 28.1391 19.34073 28.3984 19.85313 29.05652z"></path><path fill="#4A6DB4" d="M21.04337,21.82711c-0.88949,0.26374-1.63816,6.66036-1.63816,6.66036s-0.95739,1.2597-0.92098,1.70875
			c0.06628,0.81739,1.15345,2.33621,2.73424,1.97588c1.57879-0.35987,2.29101-4.48691,2.36577-6.10447
			C23.6413,24.83309,22.22825,21.47578,21.04337,21.82711z"></path><path fill="#273240" d="M24.12825,17.21505c0,0,2.32505-0.19502,2.36401-1.03267c0.03896-0.83765,0.22078-1.96749,0.72726-1.88308
			s0.5909,0.37662,0.5909,0.37662l0.21103-0.21103l-0.15909-0.60713c0,0,0.08441-0.91557-0.11039-1.03245s-0.84414,0-0.84414,0
			l-1.70664,1.22725l-2.21535,1.57789C22.98584,15.63044,23.68628,17.20228,24.12825,17.21505z"></path><path fill="#F15B57" d="M26.25621,14.37986c-2.01183,1.50592-3.91505,1.29785-4.24194,1.1199
			c-0.04678-0.02581-0.11236-0.13387-0.18227-0.30592c-0.41827-1.02904-0.99192-4.33765,1.35162-5.84894
			c2.73548-1.76398,4.58872,1.20915,4.58872,1.20915C30.57289,10.47072,28.26804,12.87341,26.25621,14.37986z"></path><path fill="#F04843" d="M26.30833,14.37986c-2.01183,1.50592-3.91505,1.29785-4.24194,1.1199
			c-0.04678-0.02581-0.11236-0.13387-0.18226-0.30592c0,0,1.20162,0.39462,4.15701-1.26184
			c3.08172-1.72742,1.78333-3.37796,1.78333-3.37796C30.62501,10.47072,28.32016,12.87341,26.30833,14.37986z"></path></g></svg>